<?xml version="1.0" encoding="UTF-8" standalone="no"?>
<!-- Created with Inkscape (http://www.inkscape.org/) -->

<svg
   width="128"
   height="128"
   viewBox="0 0 33.866667 33.866664"
   version="1.1"
   id="svg1"
   inkscape:version="1.4.4 (dcaf3e7d9e, 2026-05-05)"
   sodipodi:docname="modulatePersistent.svg"
   xmlns:inkscape="http://www.inkscape.org/namespaces/inkscape"
   xmlns:sodipodi="http://sodipodi.sourceforge.net/DTD/sodipodi-0.dtd"
   xmlns="http://www.w3.org/2000/svg"
   xmlns:svg="http://www.w3.org/2000/svg">
  <sodipodi:namedview
     id="namedview1"
     pagecolor="#505050"
     bordercolor="#eeeeee"
     borderopacity="1"
     inkscape:showpageshadow="0"
     inkscape:pageopacity="0"
     inkscape:pagecheckerboard="0"
     inkscape:deskcolor="#d1d1d1"
     inkscape:document-units="px"
     inkscape:zoom="2.7438272"
     inkscape:cx="45.010123"
     inkscape:cy="2.7334083"
     inkscape:window-width="1920"
     inkscape:window-height="1035"
     inkscape:window-x="0"
     inkscape:window-y="0"
     inkscape:window-maximized="1"
     inkscape:current-layer="layer1"
     showgrid="false" />
  <defs
     id="defs1" />
  <g
     inkscape:label="Calque 1"
     inkscape:groupmode="layer"
     id="layer1"
     transform="translate(0,-263.13332)">
    <path
       id="path1"
       style="fill:#ffffff;stroke-width:0.52778;stroke-linecap:round;paint-order:fill markers stroke"
       d="m 15.771575,271.86583 c -0.198428,-0.004 -0.410793,10e-4 -0.637661,0.0169 -1.718279,0.11899 -4.318658,0.98968 -7.7315845,3.4016 l 0.2514647,-1.44114 a 0.26388985,0.26388985 0 0 0 -0.2143723,-0.30494 0.26388985,0.26388985 0 0 0 -0.3049213,0.21438 l -0.4636551,2.64938 0.5296577,-0.3922 c 3.6516128,-2.70549 6.2765038,-3.48408 7.9683208,-3.60123 0.845909,-0.0586 1.460893,0.0482 1.859529,0.16473 0.398636,0.11649 0.562932,0.23074 0.562932,0.23074 a 0.26388985,0.26388985 0 0 0 0.364924,-0.072 0.26388985,0.26388985 0 0 0 -0.07036,-0.36711 c 0,0 -0.252816,-0.16558 -0.70912,-0.29892 -0.342228,-0.1 -0.80986,-0.18867 -1.405148,-0.2002 z m 3.955251,0.0415 a 0.26389039,0.26389039 0 0 0 -0.263465,0.264 v 1.0555 a 0.26389039,0.26389039 0 0 0 0.263465,0.26402 0.26389039,0.26389039 0 0 0 5.45e-4,0 0.26389039,0.26389039 0 0 0 0.263465,-0.26402 v -1.0555 a 0.26389039,0.26389039 0 0 0 -0.26401,-0.264 z m 0,2.11099 a 0.26389039,0.26389039 0 0 0 -0.263465,0.26401 v 1.0555 a 0.26389039,0.26389039 0 0 0 0.263465,0.26401 0.26389039,0.26389039 0 0 0 5.45e-4,0 0.26389039,0.26389039 0 0 0 0.263465,-0.26401 v -1.0555 a 0.26389039,0.26389039 0 0 0 -0.26401,-0.26401 z m 0,2.11154 a 0.26389039,0.26389039 0 0 0 -0.263465,0.26347 v 1.05603 a 0.26389039,0.26389039 0 0 0 0.263465,0.26347 0.26389039,0.26389039 0 0 0 5.45e-4,0 0.26389039,0.26389039 0 0 0 0.263465,-0.26347 v -1.05603 a 0.26389039,0.26389039 0 0 0 -0.26401,-0.26347 z m 2.855023,0.81712 a 0.52778077,0.52778077 0 0 0 -0.0082,10e-4 0.52778077,0.52778077 0 0 0 -0.04364,0.005 0.52778077,0.52778077 0 0 0 -0.018,0.003 0.52778077,0.52778077 0 0 0 -0.05455,0.0141 0.52778077,0.52778077 0 0 0 -0.01419,0.004 0.52778077,0.52778077 0 0 0 -0.0076,0.002 0.52778077,0.52778077 0 0 0 -0.04145,0.0174 0.52778077,0.52778077 0 0 0 -0.01254,0.005 0.52778077,0.52778077 0 0 0 -0.0017,0.001 0.52778077,0.52778077 0 0 0 -0.03491,0.0191 0.52778077,0.52778077 0 0 0 -0.0229,0.0142 0.52778077,0.52778077 0 0 0 -0.02946,0.0207 0.52778077,0.52778077 0 0 0 -0.02237,0.0174 0.52778077,0.52778077 0 0 0 -0.02673,0.0245 0.52778077,0.52778077 0 0 0 -0.02564,0.0262 0.52778077,0.52778077 0 0 0 -0.01309,0.0158 0.52778077,0.52778077 0 0 0 -0.02946,0.0387 0.52778077,0.52778077 0 0 0 -0.01145,0.0174 0.52778077,0.52778077 0 0 0 -0.02291,0.041 0.52778077,0.52778077 0 0 0 -0.0065,0.0115 l -0.0065,0.0142 a 0.52778077,0.52778077 0 0 1 -5.46e-4,5.4e-4 l -1.201139,2.50429 a 0.52778077,0.52778077 0 0 0 0.249282,0.70311 0.52778077,0.52778077 0 0 0 0.703119,-0.24709 l 0.73203,-1.52515 0.73203,1.5246 1.206049,2.51956 a 0.52778077,0.52778077 0 0 0 0.0043,0.007 0.52778077,0.52778077 0 0 0 0.0065,0.0115 0.52778077,0.52778077 0 0 0 0.07146,0.10366 0.52778077,0.52778077 0 0 0 0.005,0.005 0.52778077,0.52778077 0 0 0 0.564568,0.14073 0.52778077,0.52778077 0 0 0 0.0011,-5.4e-4 0.52778077,0.52778077 0 0 0 0.05182,-0.0207 0.52778077,0.52778077 0 0 0 0.0071,-0.004 0.52778077,0.52778077 0 0 0 0.02182,-0.0126 0.52778077,0.52778077 0 0 0 0.09492,-0.0666 0.52778077,0.52778077 0 0 0 0.02673,-0.0272 0.52778077,0.52778077 0 0 0 0.02182,-0.0219 0.52778077,0.52778077 0 0 0 0.0033,-0.004 0.52778077,0.52778077 0 0 0 0.03818,-0.0513 0.52778077,0.52778077 0 0 0 0.0016,-0.003 0.52778077,0.52778077 0 0 0 0.02073,-0.0371 0.52778077,0.52778077 0 0 0 0.01145,-0.0202 l 0.0071,-0.0148 1.200048,-2.50266 a 0.52778077,0.52778077 0 0 0 0.0011,-0.002 l 0.730938,-1.52515 0.730393,1.5246 5.46e-4,5.5e-4 1.200593,2.50429 a 0.52778077,0.52778077 0 0 1 5.46e-4,5.4e-4 l 0.0065,0.0141 a 0.52778077,0.52778077 0 0 0 0.0055,0.01 0.52778077,0.52778077 0 0 0 0.02454,0.0431 0.52778077,0.52778077 0 0 0 0.01255,0.0186 0.52778077,0.52778077 0 0 0 0.02619,0.0349 0.52778077,0.52778077 0 0 0 0.01309,0.0153 0.52778077,0.52778077 0 0 0 0.03601,0.0371 0.52778077,0.52778077 0 0 0 0.0098,0.008 0.52778077,0.52778077 0 0 0 0.04364,0.0338 0.52778077,0.52778077 0 0 0 0.01092,0.008 0.52778077,0.52778077 0 0 0 0.04527,0.0267 0.52778077,0.52778077 0 0 0 0.01255,0.007 0.52778077,0.52778077 0 0 0 0.0076,0.004 0.52778077,0.52778077 0 0 0 0.05182,0.0207 0.52778077,0.52778077 0 0 0 0.0011,5.4e-4 0.52778077,0.52778077 0 0 0 0.05946,0.0164 0.52778077,0.52778077 0 0 0 0.0065,0.002 0.52778077,0.52778077 0 0 0 0.05455,0.007 0.52778077,0.52778077 0 0 0 0.01691,0.002 0.52778077,0.52778077 0 0 0 0.03709,5.5e-4 0.52778077,0.52778077 0 0 0 0.03764,-5.5e-4 0.52778077,0.52778077 0 0 0 0.0027,0 0.52778077,0.52778077 0 0 0 0.06654,-0.01 0.52778077,0.52778077 0 0 0 0.0017,0 0.52778077,0.52778077 0 0 0 0.11946,-0.0398 0.52778077,0.52778077 0 0 0 0.0071,-0.004 0.52778077,0.52778077 0 0 0 0.02182,-0.0126 0.52778077,0.52778077 0 0 0 0.09492,-0.0666 0.52778077,0.52778077 0 0 0 0.048,-0.0491 0.52778077,0.52778077 0 0 0 0.04145,-0.0551 0.52778077,0.52778077 0 0 0 0.0011,-0.002 0.52778077,0.52778077 0 0 0 0.02127,-0.0377 0.52778077,0.52778077 0 0 0 0.01145,-0.0202 l 0.0065,-0.0141 a 0.52778077,0.52778077 0 0 1 5.45e-4,-5.4e-4 l 1.20114,-2.50429 a 0.52778077,0.52778077 0 0 0 -0.247101,-0.70312 0.52778077,0.52778077 0 0 0 -0.404199,-0.0229 0.52778077,0.52778077 0 0 0 -0.301103,0.27001 l -0.730938,1.5257 -0.730939,-1.5257 v -5.5e-4 a 0.52778077,0.52778077 0 0 0 -0.0016,-0.003 l -1.206049,-2.51519 a 0.52778077,0.52778077 0 0 0 -0.02836,-0.0513 0.52778077,0.52778077 0 0 0 -0.0011,-0.002 0.52778077,0.52778077 0 0 0 -0.04255,-0.0589 0.52778077,0.52778077 0 0 0 -0.0033,-0.004 0.52778077,0.52778077 0 0 0 -0.107458,-0.0949 0.52778077,0.52778077 0 0 0 -0.005,-0.003 0.52778077,0.52778077 0 0 0 -0.113459,-0.0567 v -5.5e-4 a 0.52778077,0.52778077 0 0 0 -0.07255,-0.0191 0.52778077,0.52778077 0 0 0 -0.02945,-0.004 0.52778077,0.52778077 0 0 0 -0.03982,-0.005 0.52778077,0.52778077 0 0 0 -0.03327,-5.5e-4 0.52778077,0.52778077 0 0 0 -0.03218,5.5e-4 0.52778077,0.52778077 0 0 0 -0.14346,0.0284 0.52778077,0.52778077 0 0 0 -0.103097,0.0508 0.52778077,0.52778077 0 0 0 -0.0038,0.002 0.52778077,0.52778077 0 0 0 -0.04091,0.0294 0.52778077,0.52778077 0 0 0 -0.01473,0.012 0.52778077,0.52778077 0 0 0 -0.02891,0.0267 0.52778077,0.52778077 0 0 0 -0.0191,0.0191 0.52778077,0.52778077 0 0 0 -0.02345,0.0272 0.52778077,0.52778077 0 0 0 -0.02292,0.0317 0.52778077,0.52778077 0 0 0 -0.01145,0.0169 0.52778077,0.52778077 0 0 0 -0.02509,0.0442 0.52778077,0.52778077 0 0 0 -0.0055,0.01 l -0.0065,0.0141 a 0.52778077,0.52778077 0 0 1 -5.45e-4,5.5e-4 l -1.201139,2.50429 -0.731484,1.52515 -0.73203,-1.52515 a 0.52778077,0.52778077 0 0 0 -0.0011,-0.002 l -1.197867,-2.50264 -0.0071,-0.0148 a 0.52778077,0.52778077 0 0 0 -0.0065,-0.0115 0.52778077,0.52778077 0 0 0 -0.02237,-0.0398 0.52778077,0.52778077 0 0 0 -0.01473,-0.0224 0.52778077,0.52778077 0 0 0 -0.024,-0.0317 0.52778077,0.52778077 0 0 0 -0.01691,-0.0196 0.52778077,0.52778077 0 0 0 -0.02836,-0.0289 0.52778077,0.52778077 0 0 0 -0.02018,-0.0186 0.52778077,0.52778077 0 0 0 -0.02728,-0.0219 0.52778077,0.52778077 0 0 0 -0.02728,-0.0191 0.52778077,0.52778077 0 0 0 -0.02073,-0.0126 0.52778077,0.52778077 0 0 0 -0.09273,-0.0442 v -5.5e-4 a 0.52778077,0.52778077 0 0 0 -0.142369,-0.0279 0.52778077,0.52778077 0 0 0 -0.01963,-5.5e-4 0.52778077,0.52778077 0 0 0 -0.042,-5.5e-4 z m -11.858114,0.0753 a 0.52778074,0.52778074 0 0 0 -0.373106,0.15492 l -2.4431882,2.44264 a 0.52778074,0.52778074 0 0 0 0,0.74676 0.52778074,0.52778074 0 0 0 0.7462119,0 l 2.0700823,-2.07009 2.070084,2.07009 2.443189,2.44264 a 0.52778074,0.52778074 0 0 0 0.746213,0 l 2.441007,-2.44264 a 0.52778074,0.52778074 0 0 0 0,-0.74676 0.52778074,0.52778074 0 0 0 -0.746757,0 l -2.067356,2.07008 -2.070084,-2.07008 -2.443189,-2.44264 a 0.52778074,0.52778074 0 0 0 -0.373107,-0.15492 z m -6.0035136,0.52856 a 2.4428708,2.4428708 0 0 0 -2.4426438,2.44265 2.4428708,2.4428708 0 0 0 2.4426438,2.44264 2.4428708,2.4428708 0 0 0 2.4431894,-2.44264 2.4428708,2.4428708 0 0 0 -2.4431894,-2.44265 z m 15.0066046,0.69003 a 0.26389039,0.26389039 0 0 0 -0.263465,0.26401 v 1.0555 a 0.26389039,0.26389039 0 0 0 0.263465,0.26402 0.26389039,0.26389039 0 0 0 5.45e-4,0 0.26389039,0.26389039 0 0 0 0.263465,-0.26402 v -1.0555 a 0.26389039,0.26389039 0 0 0 -0.26401,-0.26401 z m 0,2.111 a 0.26389039,0.26389039 0 0 0 -0.263465,0.26401 v 1.0555 a 0.26389039,0.26389039 0 0 0 0.263465,0.264 0.26389039,0.26389039 0 0 0 5.45e-4,0 0.26389039,0.26389039 0 0 0 0.263465,-0.264 v -1.0555 a 0.26389039,0.26389039 0 0 0 -0.26401,-0.26401 z m 0,2.11099 a 0.26389039,0.26389039 0 0 0 -0.263465,0.26401 v 1.0555 a 0.26389039,0.26389039 0 0 0 0.263465,0.26401 0.26389039,0.26389039 0 0 0 5.45e-4,0 0.26389039,0.26389039 0 0 0 0.263465,-0.26401 v -1.0555 a 0.26389039,0.26389039 0 0 0 -0.26401,-0.26401 z m 0,2.11154 a 0.26389039,0.26389039 0 0 0 -0.263465,0.26347 v 1.05604 a 0.26389039,0.26389039 0 0 0 0.263465,0.26346 0.26389039,0.26389039 0 0 0 5.45e-4,0 0.26389039,0.26389039 0 0 0 0.263465,-0.26346 v -1.05604 a 0.26389039,0.26389039 0 0 0 -0.26401,-0.26347 z m 0,2.111 a 0.26389039,0.26389039 0 0 0 -0.263465,0.264 v 1.0555 a 0.26389039,0.26389039 0 0 0 0.263465,0.26401 0.26389039,0.26389039 0 0 0 0.26401,-0.26401 v -1.0555 a 0.26389039,0.26389039 0 0 0 -0.26401,-0.264 z" />
  </g>
</svg>
