<?xml version="1.0" encoding="UTF-8" standalone="no"?>
<!-- Created with Inkscape (http://www.inkscape.org/) -->

<svg
   width="128"
   height="128"
   viewBox="0 0 33.866667 33.866664"
   version="1.1"
   id="svg1"
   inkscape:version="1.4.3 (0d15f75042, 2025-12-25)"
   sodipodi:docname="rDepth0.svg"
   xmlns:inkscape="http://www.inkscape.org/namespaces/inkscape"
   xmlns:sodipodi="http://sodipodi.sourceforge.net/DTD/sodipodi-0.dtd"
   xmlns="http://www.w3.org/2000/svg"
   xmlns:svg="http://www.w3.org/2000/svg">
  <sodipodi:namedview
     id="namedview1"
     pagecolor="#505050"
     bordercolor="#eeeeee"
     borderopacity="1"
     inkscape:showpageshadow="0"
     inkscape:pageopacity="0"
     inkscape:pagecheckerboard="0"
     inkscape:deskcolor="#d1d1d1"
     inkscape:document-units="px"
     inkscape:zoom="1.9401788"
     inkscape:cx="51.283933"
     inkscape:cy="43.03727"
     inkscape:window-width="1920"
     inkscape:window-height="1035"
     inkscape:window-x="0"
     inkscape:window-y="0"
     inkscape:window-maximized="1"
     inkscape:current-layer="layer1"
     showgrid="false" />
  <defs
     id="defs1" />
  <g
     inkscape:label="Calque 1"
     inkscape:groupmode="layer"
     id="layer1"
     transform="translate(0,-263.13332)">
    <path
       id="rect2"
       style="baseline-shift:baseline;display:inline;overflow:visible;opacity:1;vector-effect:none;fill:#ffffff;stroke-linecap:round;paint-order:fill markers stroke;enable-background:accumulate;stop-color:#000000;stop-opacity:1"
       d="M 2.6236124 272.66194 L 2.6236124 287.47085 L 7.713224 287.47085 L 7.713224 286.47091 L 3.6235513 286.47091 L 3.6235513 273.66188 L 7.713224 273.66188 L 7.713224 272.66194 L 2.6236124 272.66194 z M 14.511775 272.66194 L 14.511775 273.66188 L 19.35489 273.66188 L 19.35489 272.66194 L 14.511775 272.66194 z M 26.153441 272.66194 L 26.153441 273.66188 L 30.243114 273.66188 L 30.243114 286.47091 L 26.153441 286.47091 L 26.153441 287.47085 L 31.243053 287.47085 L 31.243053 272.66194 L 26.153441 272.66194 z M 14.511775 286.47091 L 14.511775 287.47085 L 19.35489 287.47085 L 19.35489 286.47091 L 14.511775 286.47091 z " />
  </g>
</svg>
